<?xml version="1.0" encoding="UTF-8"?>
<svg id="a" data-name="Layer 1" xmlns="http://www.w3.org/2000/svg" viewBox="0 0 117.05 117.05">
  <defs>
    <style>
      .b {
        fill: #989898;
      }
    </style>
  </defs>
  <path class="b" d="m57.9,34.97c-2.81-.54-3.26,2.52-3.45,4.55-.28,2.87-.51,5.72-.88,8.58-2.38.55-5,.22-7.44.19-.54-2.57,1.44-14.38-4.39-11.47-2.22,1.11-4.15,3.06-4.25,5.54-.12,2.93.06,5.9.12,8.84.07,4.01-1.22,12.68,3.75,14.33,6.14,2.04,4.79-7.32,5.08-10.62,2.33.04,4.46-.25,6.53.26,1.26,2.04-1.84,14.31,4.52,11.26,2.44-1.17,1.89-4.57,1.91-6.77.03-3.01.18-6.01.37-9.01.2-3.17,2.71-14.8-1.88-15.68Z"/>
  <path class="b" d="m70.2,47.29c-4.52-.3-3.63,6.31-3.63,9.12h-.03c0,3.13-1.12,9.5,3.49,9.9,4.56.39,3.64-5.71,3.58-8.5-.07-2.85.94-10.22-3.41-10.51Z"/>
  <path class="b" d="m58.53,0C26.2,0,0,26.2,0,58.53s26.2,58.53,58.53,58.53,58.53-26.2,58.53-58.53S90.85,0,58.53,0Zm26.73,77.12c-2.3,1.21-2.52,1.76-3,4.32-.47,2.49-1.34,4.88-2.45,7.16-1.81,3.71-5.12,9.14-9.22,10.65.41-3.24,1.56-6.35,1.92-9.65.32-2.92,1.23-6.27-1.03-8.62-16.76,0-37.46,3.8-49.69-10.63-9.77-11.52-9.2-29.04,1.31-39.92,5.97-6.19,14.48-9.16,22.97-9.34,5.21-.11,10.43-.08,15.65-.06,4.84.02,9.76-.17,14.53.77,16.62,3.3,27.94,19.85,23.76,36.5-2,7.97-7.46,14.99-14.74,18.83Z"/>
  <path class="b" d="m69.19,32.99c-7.02-.09-6.27,10.84.18,10.74,6.35-.1,6.3-10.66-.18-10.74Z"/>
</svg>