<?xml version="1.0" encoding="UTF-8"?>
<svg id="a" data-name="Layer 1" xmlns="http://www.w3.org/2000/svg" viewBox="0 0 117.05 117.05">
  <defs>
    <style>
      .b {
        fill: #989898;
      }
    </style>
  </defs>
  <path class="b" d="m58.53,0C26.2,0,0,26.2,0,58.53s26.2,58.53,58.53,58.53,58.53-26.2,58.53-58.53S90.85,0,58.53,0Zm-13.47,97.45c-2.52.41-2.49-3.53-.11-3.53,2.14,0,2.11,3.2.11,3.53Zm18.51-4.08c-.11-2.48,3.89-2.6,4.04-.17.16,2.64-3.92,2.87-4.04.17Zm32-33.04c-4.95.1-9.91,0-14.86,0-.24,0-.55-.02-.9-.05h-3.69c-.32.07-.61.15-.82.3-1.11.78-.77,2.76-.76,3.92.01,1.37-.17,3.34,1.17,4.17,1.23.76,3.94.46,5.27.27,1.89-.27,3.01-2.04,4.87-2.14,1.82-.1,3.39,1.15,3.78,2.91.39,1.76-.42,3.5-2.09,4.22-2.33,1-3.88-.63-5.36-2.18-1.84,0-7.77,1.03-9.02-.62-.74-.97-.29-3.21-.28-4.35.02-1.98.05-3.96.05-5.94-.42-.26-.83-.44-1.25-.55h-2c-1.19.36-2.12,1.39-2.4,2.87-.48,2.51-.51,5.93-.17,8.47.35,2.63,2.28,4.13,4.07,5.9,1.92,1.9,3.48,4.23,6.2,4.84,2.23.5,4.18,1.37,4.92,3.76.69,2.25-.33,4.9-2.47,5.97-2,1.01-4.56.36-6.06-1.24-2.03-2.17-.99-4.61.03-6.97-2.42-3-6.92-5.64-8.01-9.46-1.17-4.11-.37-9.43-.37-13.66-2-.56-4.87-.58-7-.11-.32,1.67-.44,13.28-.16,15.97,3.06,1.76,5.12,3.71,4.68,7.52-.36,3.09-2.7,6.07-6.03,6.12-3.13.04-5.9-2.5-6.59-5.44-.98-4.21,1.55-6.13,4.73-8.2.14-5.19-.08-10.55-.04-16.04-.44-.09-1.04-.2-1.71-.29h-3.91c-.78.16-1.42.47-1.76,1.01-1.08,1.71-.61,4.86-.65,6.75-.04,2.08.38,4.69-.25,6.7-.64,2.05-2.89,3.72-4.33,5.24.74,1.97,1.49,3.81,0,5.68-1.11,1.39-2.99,1.98-4.65,1.31-4.08-1.65-3.7-7.33.25-8.67,2.14-.72,3.23-1.17,4.91-2.8,1.52-1.47,2.6-2.23,2.69-4.4.1-2.54.14-5.42-.17-7.94-.23-1.83-.91-2.53-1.97-2.87h-3.45c-1.77,2.38-.85,7.55-.98,10.16-2.36,1.01-4.73.41-7.12.69-.75,1.88-1.87,3.84-4.26,3.34-2.02-.42-3.49-3.03-3.15-5.01.36-2.09,2.27-2.9,4.21-2.68,1.37.15,2.43.94,3.74,1.22,1.52.32,3.32.04,4.87.04.38-2.5-.03-4.87.06-7.07-.33-.38-.85-.58-1.43-.69h-3.43c-.24.01-.46.02-.66.02-1.15,0-2.3-.01-3.45-.02h-.03,0c-1.38,0-2.76-.02-4.14-.06-4.48-.12-8.2-.33-8.09-5.72.09-3.98,2.58-8.44,5.23-11.33,3.07-3.35,6.58-.2,9.76,1.44,1.13-.45,1.3-1.88,1.67-2.87.6-1.58,1.28-3.14,2.01-4.67,1.46-3.05,3.12-6.05,5.1-8.8,1.9-2.64,4.24-4.76,6.64-6.94,2.71-2.46,4.63-4.27,8.41-4.58,13.51-1.1,21.85,12.35,27.95,22.23,1.86.57,3.88-.07,5.79.23,1.61.26,3.08.97,4.29,2.05,3.16,2.82,4.84,7.49,6.32,11.33.62,1.61,2.24,4.26,1.24,6-.97,1.67-3.33,1.71-5.01,1.75Z"/>
</svg>