<?xml version="1.0" encoding="UTF-8"?>
<svg id="a" data-name="Layer 1" xmlns="http://www.w3.org/2000/svg" viewBox="0 0 117.05 117.05">
  <defs>
    <style>
      .b {
        fill: #989898;
      }
    </style>
  </defs>
  <path class="b" d="m58.53,0C26.2,0,0,26.2,0,58.53s26.2,58.53,58.53,58.53,58.53-26.2,58.53-58.53S90.85,0,58.53,0Zm-.41,74.79c.02,4.54-6.6,4.08-7.09-.09-.59-5.06,7.07-4.84,7.09.09Zm-22.53-54.98c2,.18,3.78.89,5.55,1.81,1.05.54,1.98,1.16,3.2,1.09,1.5-.08,3.06-1.01,4.48-1.43,2.23-.67,4.55-1.04,6.88-.8q.8,2.88.49,4.9c-2.39.36-7.26.38-8.98,2.3.59,4.08,1.39,7.79-.45,11.68-1.52,3.2-4.33,5.64-7.64,6.86-8.81,3.25-17.82-3.36-18.23-12.53-.36-7.85,6.93-14.56,14.7-13.87Zm12.04,42.47c-1.26-.19-.41-1.25,0-1.81.41.44,1.79,2.08,0,1.81Zm.81,33.74c-4.37-1.22-8.51-3.25-12.21-5.88-7.2-5.11-11.42-12.06-14.68-20.09-10.2,0-6.12-4.69-3.82-8.21,1.13-1.73,3.12-5.03,5.45-5.3,2.32-.27,3.96,2.64,5.1,4.19,1.91,2.61,6.63,9.17-1.15,9.17,2.17,6.5,6.65,12.29,12.28,16.2,6.5,4.52,13.51,5.63,21.24,6.23.2,1.62.39,3.07.57,4.51-1.61.72-10.7-.23-12.78-.81Zm11.46-70.72c-.13-1.65-.25-3.26-.37-4.83q1.38-.45,3.23.16c.46,1.5.31,3.01-.06,4.76-1.03.09-1.79.12-2.79-.09Zm3.37,71.27c-.26-1.31-.98-3.22-.34-4.23.27-.43.78-.69,1.66-.68,2.19.02,2.36,2.55,2.99,4.29-.57.3-2.9.96-4.31.62Zm2.51-28.21c-2.87.1-2.98-4.78.01-4.66,2.86.11,2.87,4.57-.01,4.66Zm20.33,22.3c-1.78.6-4.8.54-5.58.63-.62.08-1.2.44-1.81.66-2.53.89-5.04,2.25-7.7,2.83-.98-1.47-1.1-2.56-1.82-4.03,2.05-1.36,4.49-1.65,6.25-3.29-1.11-2.67-2.12-5.15-1.14-8.04.79-2.34,2.67-4.51,4.92-5.55,4.91-2.27,10.08.64,11.99,5.37,1.82,4.51-.37,9.83-5.1,11.42Zm12.22-31.49c-2.79,2.87-4.15,5.08-7,2.33-2.19-2.12-5.23-6.04-6.31-8.9-.91-2.69,2.6-3.26,5.55-3.19-1.41-6.56-5.78-12.72-11.02-16.82-2.67-2.09-5.67-3.77-8.83-5-1.32-.52-4.05-.66-5.14-1.53-1.25-1-.74-3.62-.33-4.94,2.78-1.2,8.7,2.12,11.23,3.41,3.14,1.61,6.07,3.63,8.64,6.04,5.45,5.11,8.89,11.66,11.13,18.7,10,0,4.92,6.66,2.06,9.91Z"/>
</svg>