<?xml version="1.0" encoding="UTF-8"?>
<svg id="a" data-name="Layer 1" xmlns="http://www.w3.org/2000/svg" viewBox="0 0 117.05 117.05">
  <defs>
    <style>
      .b {
        fill: #989898;
      }
    </style>
  </defs>
  <path class="b" d="m58.53,0C26.2,0,0,26.2,0,58.53s26.2,58.53,58.53,58.53,58.53-26.2,58.53-58.53S90.85,0,58.53,0Zm19.99,12.27c.38-3.27,5.4-2.98,5.5.32.12,3.99-5.95,3.56-5.5-.32Zm-5.89,45.43c-.1,7.6-6.42,14.6-14.89,14.6-7.8,0-14.83-6.38-14.73-15,.11-9.22,8.08-14.85,14.89-14.54,7.11-.34,14.85,6.1,14.73,14.94Zm-61.35-11.27c-2.15.36-2.58-2.95-.36-3.04,1.86-.08,2.2,2.73.36,3.04Zm1.4-6.67c-3.51-.67-1.57-5.81,1.49-5.78,4.36.31,1.75,6.4-1.49,5.78Zm12.31,44.27c-2.8-3.21-4.89-7.22-6.42-11.18-3.17-8.19-3.66-17.44-1.3-25.9,2.23-7.99,6.87-15.51,13.19-20.91,2.84-2.43,6.02-4.43,9.4-6,3.3-1.54,7.57-3.46,11.25-3.46,1.92,6.51,2.52,13.87,3.42,20.61-8.04,2.14-14.55,7.34-16.56,15.64-2.16,8.92,1.48,17.01,8.7,22.42-3.67,6.05-7.01,11.87-10.97,17.49-3.63-2.51-7.8-5.36-10.71-8.7Zm56.47,15.22c-.07-1.94,3.13-2.13,3.27-.23.17,2.15-3.19,2.32-3.27.23Zm-38.48-2.05c.72-3.28,2.26-6.44,3.43-9.57,1.29-3.42,2.35-7.14,4.09-10.36,7.63,2.04,14.77,1.6,21.18-3.69,4.75,5.34,9.3,10.61,13.94,16.07-10.9,10.76-28.77,13.05-42.64,7.56Zm56.24-29.78c-.35,1.48-.69,4.34-1.9,5.33-1.75-.27-17.15-6.26-19.56-7.64,1.23-5.95,1.68-11.83-1.43-17.33-3.4-5.99-8.92-8.88-15.35-10.6-.19-2.14,1.41-14.83,2.53-20.38,1.42-1.49,7.16.93,8.81,1.48,3.05,1.03,5.98,2.39,8.67,4.16,4.9,3.23,9.21,7.56,12.42,12.47,3.23,4.94,5.39,10.58,6.36,16.4.61,3.61.72,7.29.33,10.93-.19,1.73-.48,3.46-.88,5.15Z"/>
</svg>